<svg id="ekmJYwhaXPu1" xmlns="http://www.w3.org/2000/svg" xmlns:xlink="http://www.w3.org/1999/xlink" viewBox="0 0 1640 645" shape-rendering="geometricPrecision" text-rendering="geometricPrecision" project-id="51344c1249e3411287a00f9a9cd0ba49" export-id="922173fd51bb48aaa1897febd0b7f550" cached="false"><path d="M16.500799,21.479187l97.498897.025717-.01496,125.483102-97.476737.009107-.0072-125.517926Z" transform="translate(.000002 0.000002)" fill="#3f5787" stroke-width="3.28"/><path d="M16.508001,150.008419l97.491697.012939-.000001,68.493576h-97.498898l.007202-68.506515Z" transform="translate(.000003 0)" fill="#3f5787" stroke-width="3.28"/><path d="M16.508004,221.521668l97.476734-.042885.019627,68.528015-97.529395-.004945.033034-68.480185Z" transform="translate(.000002 0.000004)" fill="#3f5787" stroke-width="3.28"/><path d="M16.474972,293.007882l97.509766-.006504.019629,68.5122-97.529395-.009871v-68.495825Z" fill="#3f5787" stroke-width="3.28"/><path d="M16.474972,364.511829l97.509766-.020479.024699,53.999788-97.534466.003585.000001-53.982894Z" transform="translate(.000001 0.000003)" fill="#3f5787" stroke-width="3.28"/><path d="M16.474972,421.493828l83.02996.025467-.021036,207.997508-82.97589.014806-.033034-208.037781Z" transform="translate(0 0.000003)" fill="#3f5787" stroke-width="3.28"/><path d="M102.477247,421.519298h109.021055l-.000001,96.003804h-109.021054v-96.003804Z" transform="translate(.000004 0)" fill="#3f5787" stroke-width="3.28"/><path d="M102.477251,520.517142l56.018327-.006707.039999,44.008938h-56.058327l.000001-44.002231Z" transform="translate(.000001 0)" fill="#3f5787" stroke-width="3.28"/><path d="M214.50832,421.519298h91.00628l.01318,96.003804h-91.035171l.015711-96.003804Z" transform="translate(.000002 0)" fill="#3f5787" stroke-width="3.28"/><path d="M308.496755,421.519298l96.99438-.025467.029498,96.029271-97.026575-.000001.002697-96.003803Z" transform="translate(.000002 0.000003)" fill="#3f5787" stroke-width="3.28"/><path d="M246.00986,21.504906h153.996827l-.005701,95.504865-154.004275.000001.013149-95.504866Z" fill="#3f5787" stroke-width="3.28"/><path d="M403.00753,21.504906h123.494776v95.504866l-123.494776-.000001v-95.504865Z" fill="#3f5787" stroke-width="3.28"/><path d="M529.521075,21.504906h67.978503l.028208,95.504866h-68.000686l-.006025-95.504866Z" transform="translate(.000004 0)" fill="#3f5787" stroke-width="3.28"/><path d="M600.499474,21.504906h68.499839l-.001107,95.504866-68.486229-.000001-.012503-95.504865Z" transform="translate(.000004 0)" fill="#3f5787" stroke-width="3.28"/><path d="M671.999071,21.504906h68.014287l-.020001,95.504865h-67.98745l-.006836-95.504865Z" transform="translate(.000002 0.000003)" fill="#3f5787" stroke-width="3.28"/><path d="M742.994416,21.504906l68.496922.000003v95.504862l-68.495784-.000001-.001138-95.504864Z" transform="translate(0 0.000004)" fill="#3f5787" stroke-width="3.28"/><path d="M814.497901,21.504906l232.503174-.025717.001298,95.530582-232.484886-.000001-.019586-95.504864Z" transform="translate(0 0.000001)" fill="#3f5787" stroke-width="3.28"/><path d="M245.996711,169.009634l92.005949-.008825.034538,121.005992-92.02734-.004945-.013147-120.992222Z" transform="translate(.000004 0.000001)" fill="#3f5787" stroke-width="3.28"/><path d="M246.00986,293.007882l91.992804-.006504v70.978524l-92.005953.02.013149-70.99202Z" transform="translate(.000002 0)" fill="#3f5787" stroke-width="3.28"/><path d="M340.994188,169.009635l52.989167-.008825.02,68.495936-52.995294-.003251-.013873-68.48386Z" transform="translate(.000003 0.000001)" fill="#3f5787" stroke-width="3.28"/><path d="M341.008064,240.473607l52.995294.06v49.473195l-53.009167-.000001.013873-49.533194Z" transform="translate(0 0.000003)" fill="#3f5787" stroke-width="3.28"/><path d="M397.005502,293.001378l74.474567.006504.01602,43.490734h-74.490587v-43.497238Z" transform="translate(.000003 0)" fill="#3f5787" stroke-width="3.28"/><path d="M593.504231,201.536693l95.008552-.09169.014069,135.053613-95.002125-.000001-.020496-134.961922Z" transform="translate(0 0.000003)" fill="#3f5787" stroke-width="3.28"/><path d="M691.542363,201.445006l40.982133.09169-.007777,24.935036-40.995551.066134.021195-25.09286Z" transform="translate(.000002 0)" fill="#3f5787" stroke-width="3.28"/><path d="M735.532144,201.536696h44.971237l.022622,134.961923-89.004835-.000003v-106.99481h43.96725l.043726-27.96711Z" transform="translate(.000002 0)" fill="#3f5787" stroke-width="3.28"/><path d="M783.512309,328.50064h72.495729v189.022465l-72.495729-.000004v-189.022461Z" transform="translate(0 0.000003)" fill="#3f5787" stroke-width="3.28"/><path d="M783.512309,201.536696l72.495729-.09169v130.058859l-72.495729-.025524v-129.941645Z" fill="#3f5787" stroke-width="3.28"/><path d="M691.542365,351.49167l79.972911-.01204-.01561,37.996331l15.013677.028061.028968,128.019086-95.021141-.000006.021195-166.031432Z" fill="#3f5787" stroke-width="3.28"/><path d="M1050.008478,21.479189l115.997001.025717-.000847,95.504864-115.993223-.000001-.002931-95.53058Z" transform="translate(.000002 0.000003)" fill="#3f5787" stroke-width="3.28"/><path d="M1168.996207,21.479192l68.007707.025714-.001777,95.504866-68.005111-.000001-.000819-95.530579Z" transform="translate(.000002 0)" fill="#3f5787" stroke-width="3.28"/><path d="M1240.009961,21.504906l68.479991.000007.024093,95.504858h-68.522743l.018659-95.504865Z" transform="translate(.000002 0.000003)" fill="#3f5787" stroke-width="3.28"/><path d="M1311.495324,21.504916l68.501885-.00001.003289,95.504866-68.511722-.000001.006548-95.504855Z" transform="translate(.000001 0)" fill="#3f5787" stroke-width="3.28"/><path d="M1382.994771,21.504906l68.520046.00001-.011959,95.504856-68.499077-.000001-.00901-95.504865Z" fill="#3f5787" stroke-width="3.28"/><path d="M1454.522824,21.504916l168.967793-.00001.006232,95.504866-169.023362-.000001.049337-95.504855Z" transform="translate(.000001 0)" fill="#3f5787" stroke-width="3.28"/><path d="M858.997331,339.456331h89.013522v49.06812l-89.013522-.020286v-49.047834Z" fill="#3f5787" stroke-width="3.28"/><path d="M858.997331,391.49304h89.013522v51.514355l-89.013522.003977v-51.518332Z" fill="#3f5787" stroke-width="3.28"/><path d="M859.007281,445.993238l89.003572-.01278v71.542644h-89.013522l.00995-71.529864Z" fill="#3f5787" stroke-width="3.28"/><path d="M858.997331,169.00081h89.013522v167.497806h-89.013522v-167.497806Z" fill="#3f5787" stroke-width="3.28"/><path d="M951.004765,169.00081h103.003052l-.015945,48.008639-102.992862.002234.005755-48.010873Z" transform="translate(.000002 0.000003)" fill="#3f5787" stroke-width="3.28"/><path d="M951.004767,219.992333l102.987107.036264.015945,48.455381-103.008807.014668.005755-48.506313Z" transform="translate(.000002 0.000001)" fill="#3f5787" stroke-width="3.28"/><path d="M950.999012,271.490066l34.499896.047751.026394,64.960801-34.52629-.000003v-65.008549Z" transform="translate(0 0.000001)" fill="#3f5787" stroke-width="3.28"/><path d="M988.505397,271.537818h65.486477l.016026,64.960801-65.519325-.000004.016822-64.960797Z" transform="translate(.000003 0.000003)" fill="#3f5787" stroke-width="3.28"/><path d="M1057.01099,169.00081h103.494646l.004933,167.497806h-103.514939l.01536-167.497806Z" transform="translate(.000003 0)" fill="#3f5787" stroke-width="3.28"/><path d="M1163.499597,169.00081h73.504319v75.998545l-73.506582.022856.002263-76.021401Z" transform="translate(0 0.000001)" fill="#3f5787" stroke-width="3.28"/><path d="M1163.499597,248.001744l73.504319.007912v88.48896h-73.506582l.002263-88.496872Z" fill="#3f5787" stroke-width="3.28"/><path d="M1239.991304,169.00081l68.522743.008825-.000001,104.498939-68.522744.02.000002-104.527764Z" transform="translate(.000003 0.000001)" fill="#3f5787" stroke-width="3.28"/><path d="M1239.991304,276.501445l68.522743.000058-.024094,53.972129-68.498651.020889.000002-53.993076Z" transform="translate(.000003 0.000001)" fill="#3f5787" stroke-width="3.28"/><path d="M1308.514047,119.999403l314.982803.000243-.000001,210.494875-312.008074-.020889-.000001-164.482094-2.998824.023211.024097-46.015346Z" transform="translate(.000004 0.000001)" fill="#3f5787" stroke-width="3.28"/><path d="M1239.991304,333.490187l383.50555.042519-.006236,85.993538-152.990711.001168v91.975648h-48.006513l-.003922,6.020038-188.04087-.000001.048455-178.066772l5.512906-.000001-.018659-5.966137Z" transform="translate(0 0.000009)" fill="#3f5787" stroke-width="3.28"/><path d="M1473.491431,422.500586l64.02087-.001674-.002491,89.004157-64.001657-.000001-.016722-89.002482Z" transform="translate(0 0.000003)" fill="#3f5787" stroke-width="3.28"/><path d="M1540.489168,422.500589l83.007682-.001674v207.032697l-82.995349-.014806-.012333-207.016217Z" fill="#3f5787" stroke-width="3.28"/><path d="M1425.504787,514.53597l77.990718.015372-.001217,114.98027h-77.974172l-.015329-114.995642Z" fill="#3f5787" stroke-width="3.28"/><path d="M116.988621,21.479189l126.017054.025717-.001313,211.487371-126.009284.017393-.006457-211.530481Z" transform="translate(0 0.000002)" fill="#3f5787" stroke-width="3.28"/><path d="M397.005505,164.986921l193.501981.033889-.000207,171.477806-116.014936-.000001.004017-46.491815-77.490859-.004946.000004-125.014933Z" transform="translate(.000006 0.000005)" fill="#3f5787" stroke-width="3.28"/><path d="M240.00869,119.999404h1071.486635l-.000001,46.015346-455.487288-.023211-.000001,32.523989-268.504441-.004631v-32.496147l-347.494904-.023211v-45.992135Z" transform="translate(.000005 0)" fill="#3f5787" stroke-width="3.28"/><path d="M116.995078,230.005144l126.010597-.018174-.001313,137.018061l162.486775.009914.029497,51.479779-288.525557-.003585.000001-188.485995Z" transform="translate(.000003 0.000002)" fill="#3f5787" stroke-width="3.28"/><path d="M340.994191,293.001378h52.989167l.019999,46.454956l11.517279-.000003-.000001,24.523571h-64.512574l-.01387-70.978524Z" transform="translate(.000005 0)" fill="#3f5787" stroke-width="3.28"/><path d="M408.528499,339.456331h279.998353l-.000001,178.066777-280.018989-.000007.020637-178.06677Z" transform="translate(.000002 0.000003)" fill="#3f5787" stroke-width="3.28"/><path d="M951.004767,339.456331h280.495718l.020155,178.066771-280.521629-.000001.005756-178.06677Z" transform="translate(.000002 0.000003)" fill="#3f5787" stroke-width="3.28"/><path d="M102.477251,567.469717l56.058327.01526-.000001,62.046635-56.058328-.014807.000002-62.047088Z" transform="translate(.000002 0.000002)" fill="#3f5787" stroke-width="3.28"/><path d="M161.503503,520.510435h56.01942l-.002214,109.021179-56.025061-.014808.007855-109.006371Z" fill="#3f5787" stroke-width="3.28"/><path d="M1506.500597,514.551342l31.011704-.015372v62.959066l-31.025278.000859.013574-62.944553Z" transform="translate(0 0.000001)" fill="#3f5787" stroke-width="3.28"/><path d="M1506.500597,580.508624l31.009213-.075407v49.083588h-31.022787l.013574-49.008181Z" transform="translate(.000002 0.000001)" fill="#3f5787" stroke-width="3.28"/><path d="M691.52117,339.456331l89.004835.000003v47.063024l-6.016855-.000001v-38.012381l-82.966785-.010389-.021195-9.040256Z" transform="translate(0 0.000003)" fill="#3f5787" stroke-width="3.28"/></svg>
